<?xml version="1.0" encoding="UTF-8" standalone="no"?>
<svg
   height="16"
   width="16"
   version="1.1"
   id="svg13"
   sodipodi:docname="location-symbolic-rtl.svg"
   inkscape:version="1.1.2 (0a00cf5339, 2022-02-04)"
   xmlns:inkscape="http://www.inkscape.org/namespaces/inkscape"
   xmlns:sodipodi="http://sodipodi.sourceforge.net/DTD/sodipodi-0.dtd"
   xmlns="http://www.w3.org/2000/svg"
   xmlns:svg="http://www.w3.org/2000/svg">
  <sodipodi:namedview
     id="namedview15"
     pagecolor="#ffffff"
     bordercolor="#666666"
     borderopacity="1.0"
     inkscape:pageshadow="2"
     inkscape:pageopacity="0.0"
     inkscape:pagecheckerboard="0"
     showgrid="false"
     inkscape:zoom="35.487922"
     inkscape:cx="7.4109722"
     inkscape:cy="6.8896681"
     inkscape:window-width="1920"
     inkscape:window-height="985"
     inkscape:window-x="1920"
     inkscape:window-y="27"
     inkscape:window-maximized="1"
     inkscape:current-layer="svg13" />
  <defs
     id="defs7">
    <linearGradient
       id="a"
       y2="13"
       gradientUnits="userSpaceOnUse"
       x2="12"
       gradientTransform="matrix(.90164 0 0 .70484 19.622 2.2637)"
       y1="1"
       x1="12">
      <stop
         stop-color="#f0f0f0"
         offset="0"
         id="stop2" />
      <stop
         stop-color="#aaa"
         offset="1"
         id="stop4" />
    </linearGradient>
  </defs>
  <path
     d="m 7.00002,1 v 2 h -4 v 8 h 4 V 9 h 0.5312 l 2.3125,2.5938 c 0.0933,0.082 0.1563,0.237 0.1563,0.406 0,0.16873 -0.062938,0.32375 -0.15625,0.40625 l -2.25,2.594 h -0.5938 v -2 h -4 c -1.108,0 -2,-0.892 -2,-2 v -8 c 0,-1.108 0.892,-2 2,-2 h 4 z"
     fill="url(#a)"
     id="path9"
     style="fill:#bebebe;fill-opacity:1" />
  <path
     d="m 11.00015,11.99955 a 1.99995,1.99995 0 1 0 3.9999,0 1.99995,1.99995 0 1 0 -3.9999,0 z"
     fill="#bebebe"
     id="path11"
     style="stroke-width:1.3333" />
</svg>
