<?xml version="1.0" encoding="UTF-8" standalone="no"?>
<svg
   xmlns:dc="http://purl.org/dc/elements/1.1/"
   xmlns:cc="http://creativecommons.org/ns#"
   xmlns:rdf="http://www.w3.org/1999/02/22-rdf-syntax-ns#"
   xmlns:svg="http://www.w3.org/2000/svg"
   xmlns="http://www.w3.org/2000/svg"
   xmlns:sodipodi="http://sodipodi.sourceforge.net/DTD/sodipodi-0.dtd"
   xmlns:inkscape="http://www.inkscape.org/namespaces/inkscape"
   width="16"
   height="16"
   version="1.1"
   id="svg4"
   sodipodi:docname="media-zip-symbolic.svg"
   inkscape:version="0.92.3 (2405546, 2018-03-11)">
  <metadata
     id="metadata10">
    <rdf:RDF>
      <cc:Work
         rdf:about="">
        <dc:format>image/svg+xml</dc:format>
        <dc:type
           rdf:resource="http://purl.org/dc/dcmitype/StillImage" />
      </cc:Work>
    </rdf:RDF>
  </metadata>
  <defs
     id="defs8" />
  <sodipodi:namedview
     pagecolor="#ffffff"
     bordercolor="#666666"
     borderopacity="1"
     objecttolerance="10"
     gridtolerance="10"
     guidetolerance="10"
     inkscape:pageopacity="0"
     inkscape:pageshadow="2"
     inkscape:window-width="1280"
     inkscape:window-height="747"
     id="namedview6"
     showgrid="true"
     inkscape:zoom="14.75"
     inkscape:cx="6.779661"
     inkscape:cy="8"
     inkscape:window-x="0"
     inkscape:window-y="0"
     inkscape:window-maximized="1"
     inkscape:current-layer="svg4">
    <inkscape:grid
       type="xygrid"
       id="grid812" />
  </sodipodi:namedview>
  <path
     style="fill:#bebebe;fill-opacity:1"
     d="M 3,1 C 3,1 1,1 1,3 v 11 c 0,1 1,1 1,1 h 12 c 1,0 1,-1 1,-1 V 3 c 0,0 0,-2 -2,-2 z m 0,2 h 1 v 2 h 8 V 3 h 1 V 13 H 3 Z"
     id="path2"
     inkscape:connector-curvature="0"
     sodipodi:nodetypes="csscsccscccccccccc" />
  <path
     inkscape:connector-curvature="0"
     style="fill:#bebebe;fill-opacity:1"
     d="M 8,5.5 C 7.86701,5.5 7.733415,5.54455 7.640625,5.640625 l -2.5,2.5 C 5.062525,8.22017 5.012,8.326575 5,8.4375 V 8.5 9 h 6 V 8.5 8.4375 C 10.988,8.326575 10.937475,8.22017 10.859375,8.140625 l -2.5,-2.5 C 8.266585,5.544565 8.13299,5.5 8,5.5 Z M 5,10 v 2 h 6 v -2 z"
     id="path2-3" />
</svg>
