<?xml version="1.0" encoding="UTF-8" standalone="no"?>
<svg
   height="16"
   width="16"
   version="1.1"
   id="svg4"
   sodipodi:docname="sidebar-show-symbolic-rtl.svg"
   inkscape:version="1.1.2 (0a00cf5339, 2022-02-04)"
   xmlns:inkscape="http://www.inkscape.org/namespaces/inkscape"
   xmlns:sodipodi="http://sodipodi.sourceforge.net/DTD/sodipodi-0.dtd"
   xmlns="http://www.w3.org/2000/svg"
   xmlns:svg="http://www.w3.org/2000/svg">
  <defs
     id="defs8" />
  <sodipodi:namedview
     id="namedview6"
     pagecolor="#ffffff"
     bordercolor="#666666"
     borderopacity="1.0"
     inkscape:pageshadow="2"
     inkscape:pageopacity="0.0"
     inkscape:pagecheckerboard="0"
     showgrid="false"
     inkscape:zoom="35.487922"
     inkscape:cx="6.6219713"
     inkscape:cy="7.6786689"
     inkscape:window-width="1920"
     inkscape:window-height="985"
     inkscape:window-x="1920"
     inkscape:window-y="27"
     inkscape:window-maximized="1"
     inkscape:current-layer="svg4" />
  <path
     d="m 14,1 c 1.322,0 2,0.6101 2,2 v 10 c 0,1.291 -0.798,2 -2,2 H 2 C 0.7984,15 0,14.291 0,13 V 3 C 0,1.7118 0.729,1 2,1 4.973,1 10.1132,1.0113 14,1 Z m 0,2 h -2 v 10 h 2 z M 10,3 H 2 v 10 h 8 z M 8,4 v 8 H 7 L 3.25,8.6875 C 3.094,8.55 3,8.2812 3,8 3,7.7188 3.094,7.45 3.25,7.3125 L 7.0938,4 Z"
     fill="#bebebe"
     id="path2" />
</svg>
