<?xml version="1.0" encoding="UTF-8" standalone="no"?>
<svg
   height="16"
   width="16"
   version="1.1"
   id="svg20"
   sodipodi:docname="sidebar-tree-symbolic-rtl.svg"
   inkscape:version="1.1.2 (0a00cf5339, 2022-02-04)"
   xmlns:inkscape="http://www.inkscape.org/namespaces/inkscape"
   xmlns:sodipodi="http://sodipodi.sourceforge.net/DTD/sodipodi-0.dtd"
   xmlns="http://www.w3.org/2000/svg"
   xmlns:svg="http://www.w3.org/2000/svg">
  <defs
     id="defs24" />
  <sodipodi:namedview
     id="namedview22"
     pagecolor="#ffffff"
     bordercolor="#666666"
     borderopacity="1.0"
     inkscape:pageshadow="2"
     inkscape:pageopacity="0.0"
     inkscape:pagecheckerboard="0"
     showgrid="false"
     inkscape:zoom="50.1875"
     inkscape:cx="7.9900374"
     inkscape:cy="8"
     inkscape:window-width="1920"
     inkscape:window-height="985"
     inkscape:window-x="1920"
     inkscape:window-y="27"
     inkscape:window-maximized="1"
     inkscape:current-layer="svg20" />
  <g
     fill="#bebebe"
     id="g18"
     transform="matrix(-1,0,0,1,16.5,0)">
    <path
       transform="matrix(1.25,0,0,1.25,-1,-0.25)"
       d="M 6,3 A 2,2 0 1 1 2,3 2,2 0 1 1 6,3 Z"
       id="path2" />
    <path
       transform="matrix(0.75,0,0,0.75,10.5,5.25)"
       d="M 6,3 A 2,2 0 1 1 2,3 2,2 0 1 1 6,3 Z"
       id="path4" />
    <path
       transform="matrix(0.75,0,0,0.75,6.5,8.25)"
       d="M 6,3 A 2,2 0 1 1 2,3 2,2 0 1 1 6,3 Z"
       id="path6" />
    <path
       transform="matrix(0.75,0,0,0.75,10.5,11.25)"
       d="M 6,3 A 2,2 0 1 1 2,3 2,2 0 1 1 6,3 Z"
       id="path8" />
    <rect
       y="7"
       width="10"
       x="3"
       height="1"
       id="rect10" />
    <rect
       y="4"
       width="2"
       x="3"
       height="10"
       id="rect12" />
    <rect
       y="13"
       width="9"
       x="4"
       height="1"
       id="rect14" />
    <rect
       y="10"
       width="5"
       x="4"
       height="1"
       id="rect16" />
  </g>
</svg>
