<?xml version="1.0" encoding="UTF-8" standalone="no"?>
<svg
   height="16"
   width="16"
   version="1.1"
   id="svg4"
   sodipodi:docname="sidebar-hide-symbolic-rtl.svg"
   inkscape:version="1.1.2 (0a00cf5339, 2022-02-04)"
   xmlns:inkscape="http://www.inkscape.org/namespaces/inkscape"
   xmlns:sodipodi="http://sodipodi.sourceforge.net/DTD/sodipodi-0.dtd"
   xmlns="http://www.w3.org/2000/svg"
   xmlns:svg="http://www.w3.org/2000/svg">
  <defs
     id="defs8" />
  <sodipodi:namedview
     id="namedview6"
     pagecolor="#ffffff"
     bordercolor="#666666"
     borderopacity="1.0"
     inkscape:pageshadow="2"
     inkscape:pageopacity="0.0"
     inkscape:pagecheckerboard="0"
     showgrid="false"
     inkscape:zoom="25.09375"
     inkscape:cx="6.1768369"
     inkscape:cy="4.7222914"
     inkscape:window-width="1920"
     inkscape:window-height="985"
     inkscape:window-x="1920"
     inkscape:window-y="27"
     inkscape:window-maximized="1"
     inkscape:current-layer="svg4" />
  <path
     d="m 16,3.001 v 10 c 0,1.291 -0.7984,2 -2,2 H 2 c -1.202,0 -2,-0.709 -2,-2 v -10 c 0,-1.3899 0.67795,-2 2,-2 3.8868,0.0113 9.027,2e-7 12,0 1.2712,0 2,0.71185 2,2 z m -14,0 v 10 h 12 v -10 z M 12.75,7.3135 C 12.9055,7.451 13,7.7198 13,8.001 13,8.2822 12.9055,8.551 12.75,8.6885 L 9,12.001 H 8 v -8 l 0.9166,2e-4 z"
     fill="#bebebe"
     id="path2" />
</svg>
