<?xml version="1.0" encoding="UTF-8" standalone="no"?>
<svg
   height="16"
   width="16"
   version="1.1"
   id="svg13"
   sodipodi:docname="location-symbolic.svg"
   inkscape:version="1.1.2 (0a00cf5339, 2022-02-04)"
   xmlns:inkscape="http://www.inkscape.org/namespaces/inkscape"
   xmlns:sodipodi="http://sodipodi.sourceforge.net/DTD/sodipodi-0.dtd"
   xmlns="http://www.w3.org/2000/svg"
   xmlns:svg="http://www.w3.org/2000/svg">
  <sodipodi:namedview
     id="namedview15"
     pagecolor="#ffffff"
     bordercolor="#666666"
     borderopacity="1.0"
     inkscape:pageshadow="2"
     inkscape:pageopacity="0.0"
     inkscape:pagecheckerboard="0"
     showgrid="false"
     inkscape:zoom="35.487922"
     inkscape:cx="7.4109722"
     inkscape:cy="6.185203"
     inkscape:window-width="1920"
     inkscape:window-height="985"
     inkscape:window-x="1920"
     inkscape:window-y="27"
     inkscape:window-maximized="1"
     inkscape:current-layer="svg13" />
  <defs
     id="defs7">
    <linearGradient
       id="a"
       y2="13"
       gradientUnits="userSpaceOnUse"
       x2="12"
       gradientTransform="matrix(.90164 0 0 .70484 19.622 2.2637)"
       y1="1"
       x1="12">
      <stop
         stop-color="#f0f0f0"
         offset="0"
         id="stop2" />
      <stop
         stop-color="#aaa"
         offset="1"
         id="stop4" />
    </linearGradient>
  </defs>
  <path
     d="m9 1v2h4v8h-4v-2h-0.5312l-2.3125 2.5938c-0.0933 0.082-0.1563 0.237-0.1563 0.406 0 0.16873 0.062938 0.32375 0.15625 0.40625l2.25 2.594h0.5938v-2h4c1.108 0 2-0.892 2-2v-8c0-1.108-0.892-2-2-2h-4z"
     fill="url(#a)"
     id="path9"
     style="fill:#bebebe;fill-opacity:1" />
  <path
     transform="matrix(1.3333 0 0 1.3333 -.33333 -4.6667)"
     d="m4 12.5a1.5 1.5 0 1 1 -3 0 1.5 1.5 0 1 1 3 0z"
     fill="#bebebe"
     id="path11" />
</svg>
