/* XPM */
static char * nemo_xpm[] = {
"32 23 208 2",
"  	c None",
". 	c #F7E8E1",
"+ 	c #F3DDD2",
"@ 	c #E7BBA4",
"# 	c #DFA174",
"$ 	c #E3A77E",
"% 	c #E5AA7A",
"& 	c #E3AB84",
"* 	c #E3AC8C",
"= 	c #E3AD91",
"- 	c #F0D7CA",
"; 	c #FAF2ED",
"> 	c #EBC8B7",
", 	c #E49E6C",
"' 	c #E69E5C",
") 	c #ECA552",
"! 	c #EEAE53",
"~ 	c #F2B75A",
"{ 	c #F4C361",
"] 	c #F1C273",
"^ 	c #E9A665",
"/ 	c #E8BCA3",
"( 	c #EED1C1",
"_ 	c #FEFEFE",
": 	c #DB9A6A",
"< 	c #E28F51",
"[ 	c #E69442",
"} 	c #E79A47",
"| 	c #EBA34C",
"1 	c #F2BD62",
"2 	c #F5CA6E",
"3 	c #EEA33F",
"4 	c #E7923D",
"5 	c #ECB976",
"6 	c #E5B38C",
"7 	c #FCF8F6",
"8 	c #D79977",
"9 	c #DD8D53",
"0 	c #DA7E46",
"a 	c #D37B40",
"b 	c #D2753A",
"c 	c #CA7836",
"d 	c #D68336",
"e 	c #DE7726",
"f 	c #EDA242",
"g 	c #E9B986",
"h 	c #EED0BF",
"i 	c #CF9174",
"j 	c #C67144",
"k 	c #C87140",
"l 	c #C46D3C",
"m 	c #BA6536",
"n 	c #BB5D35",
"o 	c #B34F2B",
"p 	c #B3552C",
"q 	c #BB692D",
"r 	c #CD752F",
"s 	c #DE782E",
"t 	c #E48C34",
"u 	c #EA9D3E",
"v 	c #D97431",
"w 	c #D36528",
"x 	c #E6A973",
"y 	c #B76745",
"z 	c #B35C37",
"A 	c #AC5738",
"B 	c #A14E28",
"C 	c #A5462B",
"D 	c #AB4328",
"E 	c #B45B2C",
"F 	c #E3863A",
"G 	c #C85825",
"H 	c #E79846",
"I 	c #F0D5C7",
"J 	c #C9896C",
"K 	c #9B4A31",
"L 	c #8D3F28",
"M 	c #933E25",
"N 	c #9D4A2C",
"O 	c #A9482F",
"P 	c #C27335",
"Q 	c #CF7733",
"R 	c #DA7C33",
"S 	c #CA612D",
"T 	c #EFB869",
"U 	c #F4E1D8",
"V 	c #965A46",
"W 	c #7D3925",
"X 	c #853C25",
"Y 	c #AF5437",
"Z 	c #B24F32",
"` 	c #B5693B",
" .	c #B46B41",
"..	c #AC633E",
"+.	c #A15339",
"@.	c #A54D26",
"#.	c #AF4823",
"$.	c #D66C2F",
"%.	c #EFB25B",
"&.	c #E7BEAA",
"*.	c #AE725A",
"=.	c #753624",
"-.	c #904028",
";.	c #A34E31",
">.	c #B75E3C",
",.	c #C77E54",
"'.	c #B67556",
").	c #BC7B5D",
"!.	c #AD654D",
"~.	c #8D422C",
"{.	c #7C331E",
"].	c #C96734",
"^.	c #F5F3F3",
"/.	c #DFB4A0",
"(.	c #995D47",
"_.	c #793A28",
":.	c #A65D43",
"<.	c #AE6D4D",
"[.	c #BC8366",
"}.	c #C28167",
"|.	c #A55336",
"1.	c #B4643B",
"2.	c #C26B42",
"3.	c #D16B34",
"4.	c #E17F30",
"5.	c #A88C7E",
"6.	c #D49D82",
"7.	c #874434",
"8.	c #AF714E",
"9.	c #AC6846",
"0.	c #A5623F",
"a.	c #A56445",
"b.	c #D4996C",
"c.	c #D47E4B",
"d.	c #E9A56C",
"e.	c #8E6953",
"f.	c #77382A",
"g.	c #B26A49",
"h.	c #BE7545",
"i.	c #C47842",
"j.	c #96502D",
"k.	c #9D573F",
"l.	c #D38E61",
"m.	c #D8864C",
"n.	c #E29452",
"o.	c #EA9E58",
"p.	c #C58A70",
"q.	c #8E5442",
"r.	c #6E3829",
"s.	c #CD824B",
"t.	c #C97A4A",
"u.	c #8C4D30",
"v.	c #AE7855",
"w.	c #EBE8E6",
"x.	c #B29281",
"y.	c #A77962",
"z.	c #A1735D",
"A.	c #AA5C36",
"B.	c #A56D56",
"C.	c #C3835C",
"D.	c #E5A068",
"E.	c #85624F",
"F.	c #575858",
"G.	c #574136",
"H.	c #A95F3A",
"I.	c #854225",
"J.	c #6E3823",
"K.	c #DC843F",
"L.	c #745749",
"M.	c #090706",
"N.	c #946954",
"O.	c #733925",
"P.	c #4D281E",
"Q.	c #724A3C",
"R.	c #95604A",
"S.	c #74432C",
"T.	c #DFA068",
"U.	c #D98344",
"V.	c #5C4539",
"W.	c #B4714C",
"X.	c #64311F",
"Y.	c #522B21",
"Z.	c #4B2A23",
"`.	c #775846",
" +	c #BE8554",
".+	c #A9542F",
"++	c #C19176",
"@+	c #A9AAAA",
"#+	c #4D3A30",
"$+	c #50281E",
"%+	c #673527",
"&+	c #9F735C",
"*+	c #59291F",
"=+	c #56271B",
"-+	c #E09B64",
";+	c #AA9184",
">+	c #9A583A",
",+	c #99512C",
"'+	c #C86F3C",
")+	c #D18956",
"!+	c #AC7B5E",
"~+	c #ECEBEB",
"{+	c #72594D",
"]+	c #984928",
"^+	c #88634C",
"/+	c #CB7E54",
"(+	c #684D3F",
"_+	c #DCDCDC",
"          . + @ # $ % % % & * = - ;                             ",
"      ; > = , ' ) ) ! ~ { ] ] ^ $ / ( _                         ",
"    ( = : < [ [ } | ) ~ 1 2 2 3 4 5 6 ( 7                       ",
"_ ( 8 9 0 0 0 a b c d 4 | ! ~ 4 e f g g h _                     ",
"> i j k l m n n o p q r s t u v w e ~ { x h 7                   ",
"i y z A B C C C D o E q r d F v G w 4 u H 5 I                   ",
"J K K L L M N O D o m m P c Q R S G s t t T * U                 ",
"8 V W X X L N Y Z n k `  ...+.B @.#.S $.s %.5 / 7               ",
"&.*.=.=.W -.;.A >.y y ,.'.).!.~.{.M ].w $.) ! * ^.              ",
"7 /.(.=._.~.K ;.K +.:.<.[.}.,.!.|.1.2.3.0 F 4.x 5.              ",
"  + 6.(.X X ~.-.7.L V !.8.9.0.a.b., 2.c.0 w v d.e.              ",
"    + = *.7._._.f.7.g.j h.i.` j.k.: l.m.3.3.n.o.e.              ",
"      7 > p.q.r.r.:.` ` i.s.t.9.u.v.d.c.m.d.n.< e.              ",
"        w.x.y.z.(.g.A.j.` ).B.C.8.8.D.n., n.R n.E.              ",
"        F.    G.y.H.I.J.(.<.z.'.l.l.m.9 K.K., d.L.              ",
"              M.N.9.O.P.Q.R.S.` T.m.m.m.U., d.8 V.              ",
"                E.W.X.Y.Z.`.v. +W..+m c.m.U.9 ++                ",
"        @+      #+).J.$+P.P.%+O.X q m m ].a 8 `.                ",
"                  &+B.*+Y.P.=+O.I.N ` t.m.-+z.                  ",
"                  ;+8 >+X.%+O.{.,+.+m '+)+!+                    ",
"                  ~+{+[.W.]+]+]+@.1.t.l.^+                      ",
"                        ^+C.,.,./+C.!+(+                        ",
"                                                      _+        "};
