<?xml version="1.0" encoding="UTF-8" standalone="no"?>
<!-- Created with Inkscape (http://www.inkscape.org/) -->

<svg
   xmlns:dc="http://purl.org/dc/elements/1.1/"
   xmlns:cc="http://creativecommons.org/ns#"
   xmlns:rdf="http://www.w3.org/1999/02/22-rdf-syntax-ns#"
   xmlns:svg="http://www.w3.org/2000/svg"
   xmlns="http://www.w3.org/2000/svg"
   xmlns:sodipodi="http://sodipodi.sourceforge.net/DTD/sodipodi-0.dtd"
   xmlns:inkscape="http://www.inkscape.org/namespaces/inkscape"
   width="48"
   height="48"
   id="svg2"
   version="1.1"
   inkscape:version="0.48.4 r9939"
   sodipodi:docname="hicolor_status_scalable_progress-100-symbolic.svg">
  <defs
     id="defs4" />
  <sodipodi:namedview
     id="base"
     pagecolor="#ffffff"
     bordercolor="#666666"
     borderopacity="1.0"
     inkscape:pageopacity="0.0"
     inkscape:pageshadow="2"
     inkscape:zoom="11.2"
     inkscape:cx="36.65382"
     inkscape:cy="22.4939"
     inkscape:document-units="px"
     inkscape:current-layer="layer1"
     showgrid="false"
     inkscape:window-width="1920"
     inkscape:window-height="1030"
     inkscape:window-x="0"
     inkscape:window-y="25"
     inkscape:window-maximized="1" />
  <metadata
     id="metadata7">
    <rdf:RDF>
      <cc:Work
         rdf:about="">
        <dc:format>image/svg+xml</dc:format>
        <dc:type
           rdf:resource="http://purl.org/dc/dcmitype/StillImage" />
        <dc:title />
      </cc:Work>
    </rdf:RDF>
  </metadata>
  <g
     inkscape:label="Layer 1"
     inkscape:groupmode="layer"
     id="layer1"
     transform="translate(0,-1004.3622)">
    <path
       style="fill:#bebebe;fill-opacity:1;stroke:none"
       d="m 23.999992,1008.2364 c -11.114724,0 -20.1249923,9.0125 -20.1249923,20.126 0,11.1136 9.0102683,20.126 20.1249923,20.126 11.114724,0 20.124991,-9.0124 20.124991,-20.126 0,-11.1135 -9.010267,-20.126 -20.124991,-20.126 z m 0,7.5469 c 6.946701,0 12.578116,5.6311 12.578116,12.5791 0,6.9481 -5.631415,12.5788 -12.578116,12.5788 -6.946697,0 -12.57812,-5.6307 -12.57812,-12.5788 0,-6.948 5.631423,-12.5791 12.57812,-12.5791 z"
       id="path2993"
       inkscape:connector-curvature="0" />
    <g
       id="layer10"
       transform="matrix(1.2499992,0,0,1.249999,-213.49988,458.42209)">
      <path
         inkscape:connector-curvature="0"
         id="rect42761"
         style="text-indent:0;text-transform:none;block-progression:tb;color:#bebebe;fill:#bebebe"
         d="m 185.19,448 c -1.2,0 -2.19,0.99 -2.19,2.19 v 11.625 c 0,1.1999 0.9859,2.1875 2.1875,2.1875 h 9.625 c 1.2016,0 2.1875,-0.98758 2.1875,-2.1875 V 450.19 c -0.01,-1.21 -1,-2.2 -2.2,-2.2 h -9.625 z m 0,2 h 9.625 c 0.1238,0 0.1875,0.0566 0.1875,0.1875 v 11.625 c 0,0.1309 -0.0637,0.1875 -0.1875,0.1875 h -9.625 c -0.14,-0.01 -0.2,-0.07 -0.2,-0.2 v -11.625 c 0,-0.12 0.06,-0.18 0.19,-0.18 z" />
      <path
         inkscape:connector-curvature="0"
         id="path42765"
         style="color:#000000;fill:#bebebe"
         d="m 189.84,451 c -0.26556,0.0109 -0.54445,0.0586 -0.8125,0.125 -2.1444,0.53085 -3.4371,2.6993 -2.9062,4.8438 0.4498,1.817 2.0753,3.0225 3.8657,3.0253 0.16806,2.7e-4 0.33757,-0.0101 0.5077,-0.0315 l -0.3888,-2.9796 c -0.0347,0.01 -0.0704,0.017 -0.10961,0.017 -0.55254,0 -1,-0.44746 -1,-1 0,-0.55254 0.44746,-1 1,-1 0.55254,0 1,0.44746 1,1 0,0.11765 -0.0285,0.22486 -0.0726,0.32494 l 2.7006,1.3868 c 0.38616,-0.83016 0.46978,-1.7806 0.24701,-2.6805 -0.46449,-1.8764 -2.1723,-3.1072 -4.0312,-3.0312 z" />
      <path
         inkscape:connector-curvature="0"
         id="path42767"
         style="color:#000000;fill:#bebebe"
         d="m 190.66,456 1.34,4 c 0.73426,2.056 3,0.38433 1.4966,-1 z" />
    </g>
  </g>
</svg>
