<?xml version="1.0" encoding="UTF-8" standalone="no"?>
<svg xmlns="http://www.w3.org/2000/svg" height="16" width="16" version="1.1" xmlns:xlink="http://www.w3.org/1999/xlink">
 <defs>
  <radialGradient id="i" xlink:href="#a" gradientUnits="userSpaceOnUse" cy="486.65" cx="605.71" gradientTransform="matrix(-2.7744,0,0,1.9697,112.76,-872.89)" r="117.14"/>
  <linearGradient id="a">
   <stop offset="0"/>
   <stop stop-opacity="0" offset="1"/>
  </linearGradient>
  <radialGradient id="h" xlink:href="#a" gradientUnits="userSpaceOnUse" cy="486.65" cx="605.71" gradientTransform="matrix(2.7744,0,0,1.9697,-1891.6,-872.89)" r="117.14"/>
  <linearGradient id="g" y2="609.51" gradientUnits="userSpaceOnUse" x2="302.86" gradientTransform="matrix(2.7744,0,0,1.9697,-1892.2,-872.89)" y1="366.65" x1="302.86">
   <stop stop-opacity="0" offset="0"/>
   <stop offset=".5"/>
   <stop stop-opacity="0" offset="1"/>
  </linearGradient>
  <linearGradient id="f" stop-color="#fff" y2="24.628" gradientUnits="userSpaceOnUse" x2="20.055" gradientTransform="matrix(.29669 0 0 .35207 1.8925 2.174)" y1="16.408" x1="18.031">
   <stop offset="0"/>
   <stop stop-opacity="0" offset="1"/>
  </linearGradient>
  <linearGradient id="e" y2="238.4" gradientUnits="userSpaceOnUse" x2="169.23" gradientTransform="matrix(.054893 .013851 .0025726 .052482 -.67283 -.267)" y1="58.583" x1="126.7">
   <stop stop-color="#aacb7d" offset="0"/>
   <stop stop-color="#709937" offset="1"/>
  </linearGradient>
  <linearGradient id="d" y2="4.0514" gradientUnits="userSpaceOnUse" x2="4.176" gradientTransform="matrix(1.0083 0 0 1.0006 .03917 -.007)" y1="14.993" x1="10.318">
   <stop stop-color="#51751e" offset="0"/>
   <stop stop-color="#51751e" offset="1"/>
  </linearGradient>
 </defs>
 <g transform="matrix(.36395 0 0 .34457 -.60471 -.38545)">
  <g transform="matrix(.021652 0 0 .014857 43.008 42.685)">
   <rect opacity=".40206" height="478.36" width="1339.6" y="-150.7" x="-1559.3" fill="url(#g)"/>
   <path opacity=".40206" d="m-219.62-150.68v478.33c142.87 0.90045 345.4-107.17 345.4-239.2s-159.44-239.13-345.4-239.13z" fill="url(#h)"/>
   <path opacity=".40206" d="m-1559.3-150.68v478.33c-142.87 0.90045-345.4-107.17-345.4-239.2s159.44-239.13 345.4-239.13z" fill="url(#i)"/>
  </g>
 </g>
 <path stroke-linejoin="round" d="m1.5323 1.5092v1.1859h-1.0428l0.00377 3.2103-0.00377 8.5832h13.018v-11.793h-6.0343v-1.1859z" stroke="#a8a8a8" stroke-linecap="round" stroke-width="0.979" fill="#fff"/>
 <path stroke-linejoin="round" d="m15.5 4.5554v9.9332h-12.987v-9.9332z" stroke="url(#d)" stroke-linecap="round" fill="url(#e)"/>
 <path opacity=".35" d="m3.513 13.989v-8.4332h11.487" stroke="#fff" stroke-width="1px" fill="none"/>
 <path opacity=".2" d="m2.013 11.072 13.987-2.6276v-4.389h-13.987z" fill-rule="evenodd" fill="url(#f)"/>
</svg>
