<?xml version="1.0" encoding="UTF-8" standalone="no"?>
<svg xmlns="http://www.w3.org/2000/svg" height="16" width="16" version="1.1">
 <g fill="#bebebe">
  <path transform="matrix(1.25 0 0 1.25 -1 -.25)" d="m6 3a2 2 0 1 1 -4 0 2 2 0 1 1 4 0z"/>
  <path transform="matrix(.75 0 0 .75 10.5 5.25)" d="m6 3a2 2 0 1 1 -4 0 2 2 0 1 1 4 0z"/>
  <path transform="matrix(.75 0 0 .75 6.5 8.25)" d="m6 3a2 2 0 1 1 -4 0 2 2 0 1 1 4 0z"/>
  <path transform="matrix(.75 0 0 .75 10.5 11.25)" d="m6 3a2 2 0 1 1 -4 0 2 2 0 1 1 4 0z"/>
  <rect y="7" width="10" x="3" height="1"/>
  <rect y="4" width="2" x="3" height="10"/>
  <rect y="13" width="9" x="4" height="1"/>
  <rect y="10" width="5" x="4" height="1"/>
 </g>
</svg>
