<?xml version="1.0" encoding="UTF-8" standalone="no"?>
<svg xmlns="http://www.w3.org/2000/svg" height="16" width="16" version="1.1">
 <defs>
  <linearGradient id="a" y2="16.588" gradientUnits="userSpaceOnUse" x2="11.162" gradientTransform="matrix(.90164 0 0 .70484 1.8591 2.2637)" y1="-1.131" x1="11.162">
   <stop stop-color="#f0f0f0" offset="0"/>
   <stop stop-color="#aaa" offset="1"/>
  </linearGradient>
 </defs>
 <path d="m9.8808 1.4665v1.6193h1.5695c1.3322 0 1.5944 0.28708 1.5944 1.6193v3.6206c0 1.3322-0.26217 1.6193-1.5944 1.6193h-1.5695v-2.3666l-4.8329 3.1887 4.8329 3.1887v-2.3916h2.3916c1.3249 0 2.3916-1.0666 2.3916-2.3916v-5.3146c0-1.3249-1.0666-2.3916-2.3916-2.3916-0.60224-0.0000281-2.3916 0.0001-2.3916 0.0001zm-7.2245 7.9719c-0.73379 0-1.3286 0.59485-1.3286 1.3286 0 0.73379 0.59485 1.3286 1.3286 1.3286 0.73379 0 1.3286-0.59485 1.3286-1.3286 0-0.73379-0.59485-1.3286-1.3286-1.3286z" fill="url(#a)"/>
</svg>
