<?xml version="1.0" encoding="UTF-8" standalone="no"?>
<svg xmlns:dc="http://purl.org/dc/elements/1.1/" xmlns:cc="http://creativecommons.org/ns#" xmlns:rdf="http://www.w3.org/1999/02/22-rdf-syntax-ns#" xmlns:svg="http://www.w3.org/2000/svg" xmlns="http://www.w3.org/2000/svg" xmlns:sodipodi="http://sodipodi.sourceforge.net/DTD/sodipodi-0.dtd" xmlns:inkscape="http://www.inkscape.org/namespaces/inkscape" height="16.001" width="16" version="1.1" id="svg2" inkscape:version="0.48.4 r9939" sodipodi:docname="hicolor_actions_scalable_sidebar-hide-symbolic.svg">
   <metadata id="metadata10">
      <rdf:RDF>
         <cc:Work rdf:about="">
            <dc:format>image/svg+xml</dc:format>
            <dc:type rdf:resource="http://purl.org/dc/dcmitype/StillImage" />
         </cc:Work>
      </rdf:RDF>
   </metadata>
   <defs id="defs8" />
   <sodipodi:namedview pagecolor="#ffffff" bordercolor="#666666" borderopacity="1" objecttolerance="10" gridtolerance="10" guidetolerance="10" inkscape:pageopacity="0" inkscape:pageshadow="2" inkscape:window-width="1366" inkscape:window-height="716" id="namedview6" showgrid="true" inkscape:zoom="32" inkscape:cx="12.669221" inkscape:cy="7.4127904" inkscape:window-x="0" inkscape:window-y="27" inkscape:window-maximized="1" inkscape:current-layer="svg2">
      <inkscape:grid type="xygrid" id="grid6144" />
   </sodipodi:namedview>
   <path d="m 0,3.0009995 0,9.9999995 c 0,1.291 0.7984,2 2,2 l 12,0 c 1.202,0 2,-0.709 2,-2 l 0,-9.9999995 c 0,-1.3898549 -0.677946,-2 -2,-2 -3.8868,0.0113 -9.02695,2e-7 -12,0 -1.27120338,0 -2,0.7118464 -2,2 z m 14,0 0,9.9999995 -12,0 0,-9.9999995 z m -10.75,4.3125 c -0.1555,0.1375 -0.25,0.4063 -0.25,0.6875 0,0.28122 0.094476,0.55 0.25,0.6875 L 7,12.001149 l 1,-1.5e-4 0,-7.9999995 -0.91655,3.5e-4 z" id="path4" inkscape:connector-curvature="0" style="fill:#bebebe" sodipodi:nodetypes="ssssscccsccccccscccccc" />
</svg>
