<?xml version="1.0" encoding="UTF-8" standalone="no"?>
<svg xmlns="http://www.w3.org/2000/svg" height="16" width="16" version="1.1">
 <path d="m3.5156 0.015615a3 2.8993 0 0 0 -2.7812 2.9063 3 2.8993 0 0 0 1.5312 2.5312v9.5625h3 6.2812a2 1.9999 0 0 0 3.7188 -1 2 1.9999 0 0 0 -2.1562 -2 2 1.9999 0 0 0 -1.5625 1h-6.2812v-1.5938h3.2812a2 1.9999 0 0 0 3.7187 -1 2 1.9999 0 0 0 -2.1562 -2 2 1.9999 0 0 0 -1.5625 1h-3.2812v-1.4062h6.2812a2 1.9999 0 0 0 3.7188 -1 2 1.9999 0 0 0 -2.1562 -2 2 1.9999 0 0 0 -1.5625 1h-6.2812v-0.625a3 2.8993 0 0 0 1.4688 -2.4688 3 2.8993 0 0 0 -3.2188 -2.9063z" fill="#bebebe"/>
</svg>
