<?xml version="1.0" encoding="UTF-8" standalone="no"?>
<svg xmlns="http://www.w3.org/2000/svg" height="16.001" width="16" version="1.1">
 <path d="m2.1875 1c-1.2 0-2.1875 1.0839-2.1875 2.375v9.2812c0 1.291 0.9859 2.344 2.1875 2.344h11.625c1.202 0 2.188-1.053 2.188-2.344v-9.281c-0.01-1.3019-0.988-2.375-2.188-2.375-3.8532 0.0139-7.8311-0.0359-11.624 0zm0 2.1562c0.20811 0 1.385 0.0000052 1.8125 0v9.6875h-1.8125c-0.14-0.011-0.1875-0.079-0.1875-0.219v-9.2812c0-0.1292 0.0575-0.1876 0.1875-0.1876zm3.8125 0c2.594-0.000099 5.2253 0.0009207 7.8125 0 0.124 0 0.188 0.078 0.188 0.2188v9.2812c0 0.14083-0.0637 0.1875-0.1875 0.1875h-7.8125v-9.6875zm2 0.8438v8s0.33311-0.000392 0.5 0c0.087598 0 0.17392-0.02175 0.25-0.09375l3.5-3.2185c0.156-0.1375 0.25-0.4063 0.25-0.6875s-0.094-0.55-0.25-0.6875l-3.5-3.2187c-0.0762-0.069-0.1624-0.0946-0.25-0.0938h-0.5z" fill="#bebebe"/>
</svg>
