<?xml version="1.0" encoding="UTF-8" standalone="no"?>
<svg xmlns="http://www.w3.org/2000/svg" height="32" width="32" version="1.1" xmlns:xlink="http://www.w3.org/1999/xlink">
 <defs>
  <linearGradient id="k" stop-color="#fff" y2="33.955" gradientUnits="userSpaceOnUse" x2="15.215" gradientTransform="matrix(.65153 0 0 .67605 .36035 .18497)" y1="22.292" x1="11.566">
   <stop stop-opacity=".2" offset="0"/>
   <stop stop-opacity="0" offset="1"/>
  </linearGradient>
  <radialGradient id="o" stop-color="#fff" gradientUnits="userSpaceOnUse" cy="8.3021" cx="7.2647" gradientTransform="matrix(0 .73863 -.99849 0 17.149 6.854)" r="20.98">
   <stop stop-opacity="0.4" offset="0"/>
   <stop stop-opacity="0" offset="1"/>
  </radialGradient>
  <linearGradient id="l" y2="36.658" gradientUnits="userSpaceOnUse" x2="22.809" gradientTransform="matrix(.74675 0 0 .65549 -1.9221 1.1676)" y1="49.629" x1="22.935">
   <stop stop-color="#0a0a0a" stop-opacity=".498" offset="0"/>
   <stop stop-color="#0a0a0a" stop-opacity="0" offset="1"/>
  </linearGradient>
  <radialGradient id="p" gradientUnits="userSpaceOnUse" cy="14.113" cx="63.969" gradientTransform="matrix(1.008 -6.1246e-8 3.9794e-8 .65396 -55.005 6.1062)" r="23.097">
   <stop stop-color="#aacb7d" offset="0"/>
   <stop stop-color="#709937" offset="1"/>
  </radialGradient>
  <linearGradient id="m" y2="10.826" gradientUnits="userSpaceOnUse" x2="82.453" gradientTransform="matrix(.64421 0 0 .64373 -34.103 .78876)" y1="45.114" x1="82.453">
   <stop stop-color="#51751e" offset="0"/>
   <stop stop-color="#51751e" offset="1"/>
  </linearGradient>
  <linearGradient id="n" y2="16.19" gradientUnits="userSpaceOnUse" x2="62.989" gradientTransform="matrix(.62791 0 0 .6349 -31.056 1.1034)" y1="13.183" x1="62.989">
   <stop stop-color="#f9f9f9" offset="0"/>
   <stop stop-color="#c9c9c9" offset="1"/>
  </linearGradient>
  <radialGradient id="q" gradientUnits="userSpaceOnUse" cy="5.0172" cx="3" gradientTransform="matrix(0,1.0884,-1.3559,0,8.9733,2.9173)" r="21">
   <stop stop-color="#bdbdbd" offset="0"/>
   <stop stop-color="#d0d0d0" offset="1"/>
  </radialGradient>
  <radialGradient id="b" gradientUnits="userSpaceOnUse" cy="486.65" cx="605.71" gradientTransform="matrix(-.019836 0 0 .015916 15.601 21.299)" r="117.14">
   <stop offset="0"/>
   <stop stop-opacity="0" offset="1"/>
  </radialGradient>
  <radialGradient id="a" gradientUnits="userSpaceOnUse" cy="486.65" cx="605.71" gradientTransform="matrix(.019836 0 0 .015916 16.388 21.299)" r="117.14">
   <stop offset="0"/>
   <stop stop-opacity="0" offset="1"/>
  </radialGradient>
  <linearGradient id="f" y2="609.51" gradientUnits="userSpaceOnUse" x2="302.86" gradientTransform="matrix(.051143 0 0 .015916 -2.49 21.299)" y1="366.65" x1="302.86">
   <stop stop-opacity="0" offset="0"/>
   <stop offset=".5"/>
   <stop stop-opacity="0" offset="1"/>
  </linearGradient>
 </defs>
 <path stroke-linejoin="round" d="m3.5 6.5001v1.9999h-0.9913v8l26.991-3.36v-4.64h-15l0.000005-1.9999z" stroke="url(#q)" stroke-linecap="round" fill="url(#n)"/>
 <rect opacity=".3" height="3.8653" width="24.695" y="27.135" x="3.6472" fill="url(#f)"/>
 <path opacity=".3" d="m28.342 27.135v3.865c1.0215 0.0073 2.4695-0.86596 2.4695-1.9328s-1.1399-1.9323-2.4695-1.9323z" fill="url(#a)"/>
 <path opacity=".3" d="m3.6472 27.135v3.865c-1.0215 0.0073-2.4695-0.86596-2.4695-1.9328s1.1399-1.9323 2.4695-1.9323z" fill="url(#b)"/>
 <path stroke-linejoin="round" d="m2.1724 29.495h27.658l0.67648-17.995h-28.972z" stroke="url(#m)" stroke-linecap="round" fill="url(#p)"/>
 <path opacity=".4" d="m1.6818 11 28.636 0.000266c0.414 0 0.682 0.292 0.682 0.656l-0.67351 17.712c0.0096 0.45948-0.1364 0.64167-0.61707 0.63203l-27.256-0.012c-0.4137 0-0.83087-0.27117-0.83087-0.63432l-0.6221-17.699c0-0.363 0.2681-0.655 0.6818-0.655z" fill="url(#l)"/>
 <path d="m29.969 12.5h-27.399l0.58452 16.495" stroke="url(#o)" stroke-linecap="round" fill="none"/>
 <path d="m1.017 11 0.3903 11.014 29.384-4.769 0.235-6.245z" fill="url(#k)"/>
</svg>
