<?xml version="1.0" encoding="UTF-8" standalone="no"?>
<svg xmlns="http://www.w3.org/2000/svg" height="48" width="48" version="1.1" xmlns:xlink="http://www.w3.org/1999/xlink">
 <defs>
  <linearGradient id="j" stop-color="#fff" y2="33.955" gradientUnits="userSpaceOnUse" x2="15.215" y1="22.292" x1="11.566">
   <stop stop-opacity=".2" offset="0"/>
   <stop stop-opacity="0" offset="1"/>
  </linearGradient>
  <radialGradient id="k" stop-color="#fff" gradientUnits="userSpaceOnUse" cy="8.3021" cx="7.2647" gradientTransform="matrix(0,1.208,-1.6272,0,26.372,8.2665)" r="20.98">
   <stop stop-opacity="0.4" offset="0"/>
   <stop stop-opacity="0" offset="1"/>
  </radialGradient>
  <linearGradient id="i" y2="36.658" gradientUnits="userSpaceOnUse" x2="22.809" gradientTransform="matrix(1.1447 0 0 .99775 -3.4661 1.0988)" y1="49.629" x1="22.935">
   <stop stop-color="#0a0a0a" stop-opacity=".498" offset="0"/>
   <stop stop-color="#0a0a0a" stop-opacity="0" offset="1"/>
  </linearGradient>
  <radialGradient id="d" gradientUnits="userSpaceOnUse" cy="14.113" cx="63.969" gradientTransform="matrix(1.5647,-9.5143e-8,6.1772e-8,1.0159,-86.213,8.1461)" r="23.097">
   <stop stop-color="#aacb7d" offset="0"/>
   <stop stop-color="#709937" offset="1"/>
  </radialGradient>
  <linearGradient id="h" y2="16.047" gradientUnits="userSpaceOnUse" x2="82.453" gradientTransform="translate(-53.765 -.11419)" y1="45.114" x1="82.453">
   <stop stop-color="#51751e" offset="0"/>
   <stop stop-color="#709937" offset="1"/>
  </linearGradient>
  <linearGradient id="g" y2="16.19" gradientUnits="userSpaceOnUse" x2="62.989" gradientTransform="translate(-50.941)" y1="13.183" x1="62.989">
   <stop stop-color="#f9f9f9" offset="0"/>
   <stop stop-color="#c9c9c9" offset="1"/>
  </linearGradient>
  <radialGradient id="c" gradientUnits="userSpaceOnUse" cy="5.0172" cx="3" gradientTransform="matrix(-1.2749e-8,1.7143,-2.1593,-1.46e-8,12.809,2.857)" r="21">
   <stop stop-color="#bdbdbd" offset="0"/>
   <stop stop-color="#d0d0d0" offset="1"/>
  </radialGradient>
  <radialGradient id="b" gradientUnits="userSpaceOnUse" cy="486.65" cx="605.71" gradientTransform="matrix(-.030791 0 0 .024706 23.39 31.942)" r="117.14">
   <stop offset="0"/>
   <stop stop-opacity="0" offset="1"/>
  </radialGradient>
  <radialGradient id="a" gradientUnits="userSpaceOnUse" cy="486.65" cx="605.71" gradientTransform="matrix(.030791 0 0 .024706 24.61 31.942)" r="117.14">
   <stop offset="0"/>
   <stop stop-opacity="0" offset="1"/>
  </radialGradient>
  <linearGradient id="f" y2="609.51" gradientUnits="userSpaceOnUse" x2="302.86" gradientTransform="matrix(.079389 0 0 .024706 -4.6933 31.942)" y1="366.65" x1="302.86">
   <stop stop-opacity="0" offset="0"/>
   <stop offset=".5"/>
   <stop stop-opacity="0" offset="1"/>
  </linearGradient>
 </defs>
 <path stroke-linejoin="round" d="m4.5082 8.5002v3.0066h-1.9918l-0.00819 12.744 42.992-5.293v-7.4515h-24v-3.0066z" stroke="url(#c)" stroke-linecap="round" fill="url(#g)"/>
 <rect opacity=".3" height="6" width="38.333" y="41" x="4.8333" fill="url(#f)"/>
 <path opacity=".3" d="m43.167 41v5.9997c1.5857 0.01129 3.8333-1.3442 3.8333-3.0002s-1.7695-2.9994-3.8333-2.9994z" fill="url(#a)"/>
 <path opacity=".3" d="m4.8333 41v5.9997c-1.5857 0.011-3.8333-1.344-3.8333-3s1.7695-3 3.8333-3z" fill="url(#b)"/>
 <path stroke-linejoin="round" d="m2.5273 44.48h42.933l1.0738-27.955h-45.034z" stroke="url(#h)" stroke-linecap="round" fill="url(#d)"/>
 <path opacity=".4" d="m2.0582 16.065 43.896 0.000403c0.63416 0 1.0452 0.44461 1.0452 0.99737l-1.032 26.961c0.015 0.7-0.209 0.977-0.945 0.962l-41.781-0.017c-0.63416 0-1.2736-0.41276-1.2736-0.96552l-0.9543-26.939c0-0.55276 0.41099-0.99775 1.0452-0.99775z" fill="url(#i)"/>
 <path d="m45.995 17.525h-43.459l0.97248 26.455" stroke="url(#k)" stroke-linecap="round" fill="none"/>
 <path d="m0.98126 16.025 0.59804 16.269 45.123-7.122 0.351-9.147z" fill="url(#j)"/>
</svg>
