<?xml version="1.0" encoding="UTF-8" standalone="no"?>
<!-- Created with Inkscape (http://www.inkscape.org/) -->

<svg
   xmlns:dc="http://purl.org/dc/elements/1.1/"
   xmlns:cc="http://creativecommons.org/ns#"
   xmlns:rdf="http://www.w3.org/1999/02/22-rdf-syntax-ns#"
   xmlns:svg="http://www.w3.org/2000/svg"
   xmlns="http://www.w3.org/2000/svg"
   xmlns:sodipodi="http://sodipodi.sourceforge.net/DTD/sodipodi-0.dtd"
   xmlns:inkscape="http://www.inkscape.org/namespaces/inkscape"
   id="svg7384"
   height="16"
   width="16"
   version="1.1"
   inkscape:version="0.91 r"
   sodipodi:docname="hicolor_actions_scalable_expand-menu-hover-symbolic.svg">
  <defs
     id="defs9" />
  <sodipodi:namedview
     pagecolor="#ffffff"
     bordercolor="#666666"
     borderopacity="1"
     objecttolerance="10"
     gridtolerance="10"
     guidetolerance="10"
     inkscape:pageopacity="0"
     inkscape:pageshadow="2"
     inkscape:window-width="1920"
     inkscape:window-height="1003"
     id="namedview7"
     showgrid="false"
     inkscape:zoom="14.75"
     inkscape:cx="-13.305229"
     inkscape:cy="10.71689"
     inkscape:window-x="0"
     inkscape:window-y="25"
     inkscape:window-maximized="1"
     inkscape:current-layer="svg7384" />
  <metadata
     id="metadata90">
    <rdf:RDF>
      <cc:Work
         rdf:about="">
        <dc:format>image/svg+xml</dc:format>
        <dc:type
           rdf:resource="http://purl.org/dc/dcmitype/StillImage" />
        <dc:title>Gnome Symbolic Icon Theme</dc:title>
      </cc:Work>
    </rdf:RDF>
  </metadata>
  <title
     id="title9167">Gnome Symbolic Icon Theme</title>
  <path
     id="path4223"
     style="fill:#bebebe;fill-opacity:1"
     d="M 9.5,2.4999998 A 5.5,5.5 0 0 0 4,8 5.5,5.5 0 0 0 9.5,13.5 5.5,5.5 0 0 0 15,8 5.5,5.5 0 0 0 9.5,2.4999998 Z m -1,2 2,0 L 10.5,7 13,7 l 0,2 -2.5,0 0,2.5 -2,0 L 8.5,9 6,9 6,7 8.5,7 8.5,4.4999998 Z M 9.5,1.5 A 6.5,6.5 0 0 0 3,8 6.5,6.5 0 0 0 9.5,14.5 6.5,6.5 0 0 0 16,8 6.5,6.5 0 0 0 9.5,1.5 Z m 0,1.5 a 5,5 0 0 1 5,5 5,5 0 0 1 -5,5 5,5 0 0 1 -5,-5 5,5 0 0 1 5,-5 z"
     inkscape:connector-curvature="0" />
  <g
     id="layer12-7"
     transform="matrix(0,-0.70002797,1,0,-726,41.601203)" />
</svg>
