<?xml version="1.0" encoding="UTF-8" standalone="no"?>
<svg xmlns="http://www.w3.org/2000/svg" height="16" width="16" version="1.1">
 <path d="m0.53 1c-0.28913 0-0.53125 0.2421-0.53125 0.5312v13.938c0 0.2985 0.23264 0.5312 0.53125 0.5312h14.938c0.2986 0 0.53125-0.2326 0.53125-0.5312v-8.9373c0-0.289-0.24212-0.5313-0.53125-0.5313h-12.469v7.5c0 0.2772-0.223 0.5-0.5 0.5s-0.5-0.2228-0.5-0.5v-8c0-0.277 0.223-0.5 0.5-0.5h11.5v-1.4058c0-0.3272-0.26666-0.5938-0.59375-0.5938h-7.4062v-1.4688c0-0.39-0.24-0.63-0.53-0.63z" fill="#bebebe"/>
</svg>
