<?xml version="1.0" encoding="UTF-8" standalone="no"?>
<!-- Created with Inkscape (http://www.inkscape.org/) -->

<svg
   xmlns:dc="http://purl.org/dc/elements/1.1/"
   xmlns:cc="http://creativecommons.org/ns#"
   xmlns:rdf="http://www.w3.org/1999/02/22-rdf-syntax-ns#"
   xmlns:svg="http://www.w3.org/2000/svg"
   xmlns="http://www.w3.org/2000/svg"
   xmlns:sodipodi="http://sodipodi.sourceforge.net/DTD/sodipodi-0.dtd"
   xmlns:inkscape="http://www.inkscape.org/namespaces/inkscape"
   width="48"
   height="48"
   id="svg2"
   version="1.1"
   inkscape:version="0.48.4 r9939"
   sodipodi:docname="hicolor_status_scalable_progress-90-symbolic.svg">
  <defs
     id="defs4" />
  <sodipodi:namedview
     id="base"
     pagecolor="#ffffff"
     bordercolor="#666666"
     borderopacity="1.0"
     inkscape:pageopacity="0.0"
     inkscape:pageshadow="2"
     inkscape:zoom="10.31934"
     inkscape:cx="35.143741"
     inkscape:cy="28.300683"
     inkscape:document-units="px"
     inkscape:current-layer="layer1"
     showgrid="false"
     inkscape:window-width="1920"
     inkscape:window-height="995"
     inkscape:window-x="0"
     inkscape:window-y="30"
     inkscape:window-maximized="1" />
  <metadata
     id="metadata7">
    <rdf:RDF>
      <cc:Work
         rdf:about="">
        <dc:format>image/svg+xml</dc:format>
        <dc:type
           rdf:resource="http://purl.org/dc/dcmitype/StillImage" />
        <dc:title />
      </cc:Work>
    </rdf:RDF>
  </metadata>
  <g
     inkscape:label="Layer 1"
     inkscape:groupmode="layer"
     id="layer1"
     transform="translate(0,-1004.3622)">
    <path
       style="fill:#bebebe;fill-opacity:1;stroke:none"
       d="M 24.4375 1 C 24.446378 1.4144382 24.440186 1.7647358 24.4375 4.84375 L 24.4375 9.65625 C 32.171934 9.8900244 38.375 16.208884 38.375 24 C 38.375 31.9391 31.939093 38.375 24 38.375 C 16.060907 38.375 9.625 31.9391 9.625 24 C 9.625 19.134181 12.050499 14.850866 15.75 12.25 C 15.70067 12.240755 15.473079 11.946998 12.96875 8.5 C 11.69466 6.7463213 10.975414 5.7251786 10.65625 5.28125 C 4.8151463 9.4521962 1 16.275507 1 24 C 1 36.7025 11.297451 47 24 47 C 36.702549 47 47 36.7025 47 24 C 47 11.443645 36.938166 1.2331905 24.4375 1 z "
       transform="translate(0,1004.3622)"
       id="path2993" />
    <g
       id="layer10"
       transform="matrix(1.2857143,0,0,1.2857143,-220.28572,442.28755)">
      <path
         inkscape:connector-curvature="0"
         id="rect42761"
         style="text-indent:0;text-transform:none;block-progression:tb;color:#bebebe;fill:#bebebe"
         d="m 185.19,448 c -1.2,0 -2.19,0.99 -2.19,2.19 v 11.625 c 0,1.1999 0.9859,2.1875 2.1875,2.1875 h 9.625 c 1.2016,0 2.1875,-0.98758 2.1875,-2.1875 V 450.19 c -0.01,-1.21 -1,-2.2 -2.2,-2.2 h -9.625 z m 0,2 h 9.625 c 0.1238,0 0.1875,0.0566 0.1875,0.1875 v 11.625 c 0,0.1309 -0.0637,0.1875 -0.1875,0.1875 h -9.625 c -0.14,-0.01 -0.2,-0.07 -0.2,-0.2 v -11.625 c 0,-0.12 0.06,-0.18 0.19,-0.18 z" />
      <path
         inkscape:connector-curvature="0"
         id="path42765"
         style="color:#000000;fill:#bebebe"
         d="m 189.84,451 c -0.26556,0.0109 -0.54445,0.0586 -0.8125,0.125 -2.1444,0.53085 -3.4371,2.6993 -2.9062,4.8438 0.4498,1.817 2.0753,3.0225 3.8657,3.0253 0.16806,2.7e-4 0.33757,-0.0101 0.5077,-0.0315 l -0.3888,-2.9796 c -0.0347,0.01 -0.0704,0.017 -0.10961,0.017 -0.55254,0 -1,-0.44746 -1,-1 0,-0.55254 0.44746,-1 1,-1 0.55254,0 1,0.44746 1,1 0,0.11765 -0.0285,0.22486 -0.0726,0.32494 l 2.7006,1.3868 c 0.38616,-0.83016 0.46978,-1.7806 0.24701,-2.6805 -0.46449,-1.8764 -2.1723,-3.1072 -4.0312,-3.0312 z" />
      <path
         inkscape:connector-curvature="0"
         id="path42767"
         style="color:#000000;fill:#bebebe"
         d="m 190.66,456 1.34,4 c 0.73426,2.056 3,0.38433 1.4966,-1 z" />
    </g>
  </g>
</svg>
