<?xml version="1.0" encoding="UTF-8" standalone="no"?>
<!-- Created with Inkscape (http://www.inkscape.org/) -->

<svg
   xmlns:dc="http://purl.org/dc/elements/1.1/"
   xmlns:cc="http://creativecommons.org/ns#"
   xmlns:rdf="http://www.w3.org/1999/02/22-rdf-syntax-ns#"
   xmlns:svg="http://www.w3.org/2000/svg"
   xmlns="http://www.w3.org/2000/svg"
   xmlns:sodipodi="http://sodipodi.sourceforge.net/DTD/sodipodi-0.dtd"
   xmlns:inkscape="http://www.inkscape.org/namespaces/inkscape"
   id="svg7384"
   height="16.001"
   width="16"
   version="1.1"
   inkscape:version="0.48.3.1 r9886"
   sodipodi:docname="hicolor_actions_scalable_sidebar-hide-symbolic.svg">
  <defs
     id="defs10" />
  <sodipodi:namedview
     pagecolor="#ffffff"
     bordercolor="#666666"
     borderopacity="1"
     objecttolerance="10"
     gridtolerance="10"
     guidetolerance="10"
     inkscape:pageopacity="0"
     inkscape:pageshadow="2"
     inkscape:window-width="1920"
     inkscape:window-height="995"
     id="namedview8"
     showgrid="true"
     inkscape:zoom="58.996314"
     inkscape:cx="12.6678"
     inkscape:cy="8.3751012"
     inkscape:window-x="0"
     inkscape:window-y="30"
     inkscape:window-maximized="1"
     inkscape:current-layer="svg7384">
    <inkscape:grid
       type="xygrid"
       id="grid2987" />
  </sodipodi:namedview>
  <title
     id="title9167">Gnome Symbolic Icon Theme</title>
  <metadata
     id="metadata90">
    <rdf:RDF>
      <cc:Work
         rdf:about="">
        <dc:format>image/svg+xml</dc:format>
        <dc:type
           rdf:resource="http://purl.org/dc/dcmitype/StillImage" />
        <dc:title>Gnome Symbolic Icon Theme</dc:title>
      </cc:Work>
    </rdf:RDF>
  </metadata>
  <path
     inkscape:connector-curvature="0"
     d="m 2.19,1.0117583 c -1.2,0 -2.19,1.0651298 -2.19,2.3561961 v 9.2795396 c 0,1.290959 0.9859,2.353505 2.1875,2.353505 h 11.625 c 1.2016,0 2.1875,-1.062525 2.1875,-2.353505 V 3.3679544 C 15.99,2.0661291 15,1.0009995 13.8,1.0009995 H 2.175 z m 0,2.1517772 h 11.625 c 0.1238,0 0.1875,0.060896 0.1875,0.2017291 v 9.2795394 c 0,0.140834 -0.0637,0.201729 -0.1875,0.201729 H 2.19 c -0.14,-0.01075 -0.2,-0.07531 -0.2,-0.215178 V 3.351816 c 0,-0.1291066 0.06,-0.1936599 0.19,-0.1936599 z"
     style="text-indent:0;text-transform:none;block-progression:tb;color:#bebebe;fill:#bebebe"
     id="rect11749-5" />
  <g
     id="layer12"
     transform="matrix(0.50055624,0,0,0.79995059,-119.14017,-483.16842)">
    <g
       id="use41971"
       transform="matrix(-1,0,0,1,296,119)">
      <path
         inkscape:connector-curvature="0"
         id="path4335"
         style="text-indent:0;text-transform:none;block-progression:tb;color:#000000;fill:#bebebe"
         d="m 84,609 v 10 h 0.90625 0.094 c 0.17491,10e-4 0.34778,-0.0388 0.5,-0.125 l 7,-4 c 0.3107,-0.17189 0.46875,-0.52345 0.46875,-0.875 0,-0.35155 -0.15805,-0.70311 -0.46875,-0.875 l -7,-4 c -0.152,-0.09 -0.325,-0.13 -0.5,-0.13 H 84.9065 z"
         transform="translate(-40,-119)" />
    </g>
  </g>
</svg>
