<?xml version="1.0" encoding="UTF-8" standalone="no"?>
<svg xmlns="http://www.w3.org/2000/svg" height="22" width="22" version="1.1" xmlns:xlink="http://www.w3.org/1999/xlink">
 <defs>
  <linearGradient id="a">
   <stop offset="0"/>
   <stop stop-opacity="0" offset="1"/>
  </linearGradient>
  <radialGradient id="e" stop-color="#fff" gradientUnits="userSpaceOnUse" cy="5.5927" cx="4.02" gradientTransform="matrix(-.025178 1.1968 -1.635 -.032772 12.998 2.8506)" r="10.273">
   <stop offset="0"/>
   <stop offset=".84754"/>
   <stop stop-opacity="0" offset="1"/>
  </radialGradient>
  <radialGradient id="d" gradientUnits="userSpaceOnUse" cy="8.4777" cx="8.2335" gradientTransform="matrix(1.2637 1.6455e-8 -1.114e-8 .85557 -2.171 2.48)" r="9.9991">
   <stop stop-color="#aacb7d" offset="0"/>
   <stop stop-color="#709937" offset="1"/>
  </radialGradient>
  <linearGradient id="j" y2="4.252" gradientUnits="userSpaceOnUse" x2="3.0769" gradientTransform="matrix(.9052 0 0 .86808 -.23 2.309)" y1="16.979" x1="15.669">
   <stop stop-color="#51751e" offset="0"/>
   <stop stop-color="#51751e" offset="1"/>
  </linearGradient>
  <linearGradient id="i" y2="37.503" gradientUnits="userSpaceOnUse" x2="-28.531" gradientTransform="matrix(.91016 0 0 .89855 31.368 -12.801)" y1="17.956" x1="-28.531">
   <stop stop-color="#fff" offset="0"/>
   <stop stop-color="#cdcdcd" offset=".91014"/>
   <stop stop-color="#a1a1a1" offset="1"/>
  </linearGradient>
  <linearGradient id="h" y2="23.062" gradientUnits="userSpaceOnUse" x2="9.8764" gradientTransform="matrix(.91016 0 0 .89855 .078 .229)" y1="2.6015" x1="9.8764">
   <stop stop-color="#c1c1c1" offset="0"/>
   <stop stop-color="#909090" offset="1"/>
  </linearGradient>
  <radialGradient id="c" xlink:href="#a" gradientUnits="userSpaceOnUse" cy="486.65" cx="605.71" gradientTransform="matrix(-.029848 0 0 .013736 21.749 13.628)" r="117.14"/>
  <radialGradient id="b" xlink:href="#a" gradientUnits="userSpaceOnUse" cy="486.65" cx="605.71" gradientTransform="matrix(.029848 0 0 .013736 .18513 13.628)" r="117.14"/>
  <linearGradient id="g" y2="609.51" gradientUnits="userSpaceOnUse" x2="302.86" gradientTransform="matrix(.029848 0 0 .013736 .17868 13.628)" y1="366.65" x1="302.86">
   <stop stop-opacity="0" offset="0"/>
   <stop offset=".5"/>
   <stop stop-opacity="0" offset="1"/>
  </linearGradient>
  <linearGradient id="f" stop-color="#fff" y2="24.628" gradientUnits="userSpaceOnUse" x2="20.055" gradientTransform="matrix(.40265 0 0 .35207 2.8582 4.1374)" y1="16.408" x1="18.031">
   <stop offset="0"/>
   <stop stop-opacity="0" offset="1"/>
  </linearGradient>
 </defs>
 <g stroke-width="104.96">
  <rect opacity=".4" height="3.3359" width="14.412" y="18.665" x="3.7602" fill="url(#g)"/>
  <path opacity=".4" d="m18.173 18.665v3.3357c1.5371 0.0063 3.716-0.74736 3.716-1.6681 0-0.92072-1.7153-1.6676-3.716-1.6676z" fill="url(#b)"/>
  <path opacity=".4" d="m3.7602 18.665v3.3357c-1.5371 0.0063-3.716-0.74736-3.716-1.6681 0-0.92072 1.7153-1.6676 3.716-1.6676z" fill="url(#c)"/>
 </g>
 <path stroke-linejoin="round" d="m2.4974 2.5059v2.0159h-1.9629s-0.02395 9.7642-0.02888 14.562c0.02647 0.80424 0.48897 1.3216 0.80973 1.3244h17.415v-15.886h-9.125v-2.0159z" stroke="url(#h)" stroke-linecap="round" stroke-width="1.0111" fill="url(#i)"/>
 <path stroke-linejoin="round" d="m3.527 6.524c9.6162 0.00005 11.616 0.00005 17.933 0.00005 0 1.3707 0.22391 13.908-0.45166 13.908-0.63816 0-15.737-0.02409-18.496-0.02409 1.3355 0 1.0145-0.5092 1.0145-13.884z" stroke="url(#j)" stroke-linecap="round" fill="url(#d)"/>
 <path opacity=".4" d="m20.969 7.5188s-15.117 0.00294-16.442 0.00294c0 12.39 0.27983 12.786-1.0146 13.392" stroke="url(#e)" stroke-width=".98120" fill="none"/>
 <path opacity=".2" d="m3.0218 6.0188v7.0671l18.974-2.6268-0.03037-4.4403z" fill-rule="evenodd" fill="url(#f)"/>
</svg>
