<?xml version="1.0" encoding="UTF-8" standalone="no"?>
<svg xmlns:dc="http://purl.org/dc/elements/1.1/" xmlns:cc="http://creativecommons.org/ns#" xmlns:rdf="http://www.w3.org/1999/02/22-rdf-syntax-ns#" xmlns:svg="http://www.w3.org/2000/svg" xmlns="http://www.w3.org/2000/svg" xmlns:sodipodi="http://sodipodi.sourceforge.net/DTD/sodipodi-0.dtd" xmlns:inkscape="http://www.inkscape.org/namespaces/inkscape" height="16" width="16" version="1.1" id="svg6213" inkscape:version="0.48.4 r9939" sodipodi:docname="hicolor_actions_scalable_sidebar-tree-symbolic.svg">
   <metadata id="metadata6221">
      <rdf:RDF>
         <cc:Work rdf:about="">
            <dc:format>image/svg+xml</dc:format>
            <dc:type rdf:resource="http://purl.org/dc/dcmitype/StillImage" />
         </cc:Work>
      </rdf:RDF>
   </metadata>
   <defs id="defs6219" />
   <sodipodi:namedview pagecolor="#ffffff" bordercolor="#666666" borderopacity="1" objecttolerance="10" gridtolerance="10" guidetolerance="10" inkscape:pageopacity="0" inkscape:pageshadow="2" inkscape:window-width="1366" inkscape:window-height="714" id="namedview6217" showgrid="true" inkscape:snap-bbox="true" inkscape:zoom="14.75" inkscape:cx="12.613708" inkscape:cy="7.7789636" inkscape:window-x="0" inkscape:window-y="27" inkscape:window-maximized="1" inkscape:current-layer="svg6213">
      <inkscape:grid type="xygrid" id="grid6223" />
   </sodipodi:namedview>
   <path sodipodi:type="arc" style="color:black;fill:#bebebe;fill-opacity:1;fill-rule:nonzero;stroke:none;stroke-width:8;marker:none;visibility:visible;display:inline;overflow:visible;enable-background:accumulate" id="path6225" sodipodi:cx="4" sodipodi:cy="3" sodipodi:rx="2" sodipodi:ry="2" d="M 6,3 A 2,2 0 1 1 2,3 2,2 0 1 1 6,3 z" transform="matrix(1.25,0,0,1.25,-1,-0.25)" />
   <path d="M 6,3 A 2,2 0 1 1 2,3 2,2 0 1 1 6,3 z" sodipodi:ry="2" sodipodi:rx="2" sodipodi:cy="3" sodipodi:cx="4" id="path6227" style="color:black;fill:#bebebe;fill-opacity:1;fill-rule:nonzero;stroke:none;stroke-width:8;marker:none;visibility:visible;display:inline;overflow:visible;enable-background:accumulate" sodipodi:type="arc" transform="matrix(0.75,0,0,0.75,10.5,5.25)" />
   <path transform="matrix(0.75,0,0,0.75,6.5,8.25)" sodipodi:type="arc" style="color:black;fill:#bebebe;fill-opacity:1;fill-rule:nonzero;stroke:none;stroke-width:8;marker:none;visibility:visible;display:inline;overflow:visible;enable-background:accumulate" id="path6229" sodipodi:cx="4" sodipodi:cy="3" sodipodi:rx="2" sodipodi:ry="2" d="M 6,3 A 2,2 0 1 1 2,3 2,2 0 1 1 6,3 z" />
   <path d="M 6,3 A 2,2 0 1 1 2,3 2,2 0 1 1 6,3 z" sodipodi:ry="2" sodipodi:rx="2" sodipodi:cy="3" sodipodi:cx="4" id="path6231" style="color:black;fill:#bebebe;fill-opacity:1;fill-rule:nonzero;stroke:none;stroke-width:8;marker:none;visibility:visible;display:inline;overflow:visible;enable-background:accumulate" sodipodi:type="arc" transform="matrix(0.75,0,0,0.75,10.5,11.25)" />
   <rect style="color:black;fill:#bebebe;fill-opacity:1;fill-rule:nonzero;stroke:none;stroke-width:8;marker:none;visibility:visible;display:inline;overflow:visible;enable-background:accumulate" id="rect6233" width="10" height="1" x="3" y="7" />
   <rect style="color:black;fill:#bebebe;fill-opacity:1;fill-rule:nonzero;stroke:none;stroke-width:8;marker:none;visibility:visible;display:inline;overflow:visible;enable-background:accumulate" id="rect6235" width="2" height="10" x="3" y="4" />
   <rect style="color:black;fill:#bebebe;fill-opacity:1;fill-rule:nonzero;stroke:none;stroke-width:8;marker:none;visibility:visible;display:inline;overflow:visible;enable-background:accumulate" id="rect6237" width="9" height="1" x="4" y="13" />
   <rect style="color:black;fill:#bebebe;fill-opacity:1;fill-rule:nonzero;stroke:none;stroke-width:8;marker:none;visibility:visible;display:inline;overflow:visible;enable-background:accumulate" id="rect6239" width="5" height="1" x="4" y="10" />
</svg>
