<?xml version="1.0" encoding="UTF-8" standalone="no"?>
<svg
   xmlns:dc="http://purl.org/dc/elements/1.1/"
   xmlns:cc="http://creativecommons.org/ns#"
   xmlns:rdf="http://www.w3.org/1999/02/22-rdf-syntax-ns#"
   xmlns:svg="http://www.w3.org/2000/svg"
   xmlns="http://www.w3.org/2000/svg"
   xmlns:sodipodi="http://sodipodi.sourceforge.net/DTD/sodipodi-0.dtd"
   xmlns:inkscape="http://www.inkscape.org/namespaces/inkscape"
   height="16"
   width="16"
   version="1.1"
   id="svg2"
   inkscape:version="0.48.4 r9939"
   sodipodi:docname="hicolor_actions_scalable_location-symbolic.svg">
  <metadata
     id="metadata17">
    <rdf:RDF>
      <cc:Work
         rdf:about="">
        <dc:format>image/svg+xml</dc:format>
        <dc:type
           rdf:resource="http://purl.org/dc/dcmitype/StillImage" />
      </cc:Work>
    </rdf:RDF>
  </metadata>
  <sodipodi:namedview
     pagecolor="#ffffff"
     bordercolor="#666666"
     borderopacity="1"
     objecttolerance="10"
     gridtolerance="10"
     guidetolerance="10"
     inkscape:pageopacity="0"
     inkscape:pageshadow="2"
     inkscape:window-width="743"
     inkscape:window-height="480"
     id="namedview15"
     showgrid="false"
     inkscape:zoom="14.75"
     inkscape:cx="8"
     inkscape:cy="8"
     inkscape:window-x="606"
     inkscape:window-y="172"
     inkscape:window-maximized="0"
     inkscape:current-layer="svg2" />
  <defs
     id="defs4">
    <linearGradient
       id="a"
       y2="13"
       gradientUnits="userSpaceOnUse"
       x2="12"
       gradientTransform="matrix(.90164 0 0 .70484 19.622 2.2637)"
       y1="1"
       x1="12">
      <stop
         stop-color="#f0f0f0"
         offset="0"
         id="stop7" />
      <stop
         stop-color="#aaa"
         offset="1"
         id="stop9" />
    </linearGradient>
  </defs>
  <path
     d="m9 1v2h4v8h-4v-2h-0.5312l-2.3125 2.5938c-0.0933 0.082-0.1563 0.237-0.1563 0.406 0 0.16873 0.062938 0.32375 0.15625 0.40625l2.25 2.594h0.5938v-2h4c1.108 0 2-0.892 2-2v-8c0-1.108-0.892-2-2-2h-4z"
     fill="url(#a)"
     id="path11"
     style="fill:#bebebe;fill-opacity:1" />
  <path
     transform="matrix(1.3333 0 0 1.3333 -.33333 -4.6667)"
     d="m4 12.5a1.5 1.5 0 1 1 -3 0 1.5 1.5 0 1 1 3 0z"
     fill="#bebebe"
     id="path13" />
</svg>
