<?xml version="1.0" encoding="UTF-8" standalone="no"?>
<!-- Created with Inkscape (http://www.inkscape.org/) -->

<svg
   xmlns:dc="http://purl.org/dc/elements/1.1/"
   xmlns:cc="http://creativecommons.org/ns#"
   xmlns:rdf="http://www.w3.org/1999/02/22-rdf-syntax-ns#"
   xmlns:svg="http://www.w3.org/2000/svg"
   xmlns="http://www.w3.org/2000/svg"
   xmlns:sodipodi="http://sodipodi.sourceforge.net/DTD/sodipodi-0.dtd"
   xmlns:inkscape="http://www.inkscape.org/namespaces/inkscape"
   id="svg7384"
   height="16.001"
   width="16"
   version="1.1"
   inkscape:version="0.48.3.1 r9886"
   sodipodi:docname="hicolor_actions_scalable_sidebar-tree-symbolic.svg">
  <defs
     id="defs10" />
  <sodipodi:namedview
     pagecolor="#ffffff"
     bordercolor="#666666"
     borderopacity="1"
     objecttolerance="10"
     gridtolerance="10"
     guidetolerance="10"
     inkscape:pageopacity="0"
     inkscape:pageshadow="2"
     inkscape:window-width="1920"
     inkscape:window-height="995"
     id="namedview8"
     showgrid="true"
     inkscape:zoom="20.858347"
     inkscape:cx="11.560564"
     inkscape:cy="11.857551"
     inkscape:window-x="0"
     inkscape:window-y="30"
     inkscape:window-maximized="1"
     inkscape:current-layer="svg7384">
    <inkscape:grid
       type="xygrid"
       id="grid2987" />
  </sodipodi:namedview>
  <title
     id="title9167">Gnome Symbolic Icon Theme</title>
  <metadata
     id="metadata90">
    <rdf:RDF>
      <cc:Work
         rdf:about="">
        <dc:format>image/svg+xml</dc:format>
        <dc:type
           rdf:resource="http://purl.org/dc/dcmitype/StillImage" />
        <dc:title>Gnome Symbolic Icon Theme</dc:title>
      </cc:Work>
    </rdf:RDF>
  </metadata>
  <rect
     style="fill:#bebebe;fill-opacity:1;stroke:none"
     id="rect3818"
     width="7"
     height="1.9896111"
     x="5"
     y="6.0009995" />
  <rect
     style="fill:#bebebe;fill-opacity:1;stroke:none"
     id="rect3820"
     width="4"
     height="2"
     x="5"
     y="9.4078045" />
  <rect
     style="fill:#bebebe;fill-opacity:1;stroke:none"
     id="rect3826"
     width="3"
     height="12"
     x="2"
     y="3.0009995" />
  <rect
     style="fill:#bebebe;fill-opacity:1;stroke:none"
     id="rect3820-3"
     width="7"
     height="2"
     x="5"
     y="13.000999" />
  <path
     sodipodi:type="arc"
     style="fill:#bebebe;fill-opacity:1;stroke:none"
     id="path3846"
     sodipodi:cx="15"
     sodipodi:cy="6.2479072"
     sodipodi:rx="2"
     sodipodi:ry="1.7530925"
     d="m 17,6.2479072 a 2,1.7530925 0 1 1 -4,0 2,1.7530925 0 1 1 4,0 z"
     transform="matrix(1,0,0,1.140841,-2,-0.1268692)" />
  <path
     sodipodi:type="arc"
     style="fill:#bebebe;fill-opacity:1;stroke:none"
     id="path3846-7"
     sodipodi:cx="15"
     sodipodi:cy="6.2479072"
     sodipodi:rx="2"
     sodipodi:ry="1.7530925"
     d="m 17,6.2479072 a 2,1.7530925 0 1 1 -4,0 2,1.7530925 0 1 1 4,0 z"
     transform="matrix(1,0,0,1.140841,-2,6.8731308)" />
  <path
     sodipodi:type="arc"
     style="fill:#bebebe;fill-opacity:1;stroke:none"
     id="path3846-6"
     sodipodi:cx="15"
     sodipodi:cy="6.2479072"
     sodipodi:rx="2"
     sodipodi:ry="1.7530925"
     d="m 17,6.2479072 a 2,1.7530925 0 1 1 -4,0 2,1.7530925 0 1 1 4,0 z"
     transform="matrix(1,0,0,1.140841,-5,3.2799359)" />
  <path
     sodipodi:type="arc"
     style="fill:#bebebe;fill-opacity:1;stroke:none"
     id="path2991"
     sodipodi:cx="5.5"
     sodipodi:cy="3.1018884"
     sodipodi:rx="2.5"
     sodipodi:ry="2.4916811"
     d="m 8,3.1018884 a 2.5,2.4916811 0 1 1 -5,0 2.5,2.4916811 0 1 1 5,0 z"
     transform="matrix(1.2,0,0,1.1635913,-3.1424068,-0.70903248)" />
</svg>
