<?xml version="1.0" encoding="UTF-8" standalone="no"?>
<svg xmlns:dc="http://purl.org/dc/elements/1.1/" xmlns:cc="http://creativecommons.org/ns#" xmlns:rdf="http://www.w3.org/1999/02/22-rdf-syntax-ns#" xmlns:svg="http://www.w3.org/2000/svg" xmlns="http://www.w3.org/2000/svg" xmlns:sodipodi="http://sodipodi.sourceforge.net/DTD/sodipodi-0.dtd" xmlns:inkscape="http://www.inkscape.org/namespaces/inkscape" height="16" width="16" version="1.1" id="svg6422" inkscape:version="0.48.4 r9939" sodipodi:docname="hicolor_actions_scalable_sidebar-places-symbolic.svg">
   <metadata id="metadata6430">
      <rdf:RDF>
         <cc:Work rdf:about="">
            <dc:format>image/svg+xml</dc:format>
            <dc:type rdf:resource="http://purl.org/dc/dcmitype/StillImage" />
         </cc:Work>
      </rdf:RDF>
   </metadata>
   <defs id="defs6428" />
   <sodipodi:namedview pagecolor="#ffffff" bordercolor="#666666" borderopacity="1" objecttolerance="10" gridtolerance="10" guidetolerance="10" inkscape:pageopacity="0" inkscape:pageshadow="2" inkscape:window-width="1366" inkscape:window-height="714" id="namedview6426" showgrid="true" inkscape:snap-page="true" inkscape:snap-bbox="true" inkscape:zoom="20.85965" inkscape:cx="19.787639" inkscape:cy="6.9730306" inkscape:window-x="0" inkscape:window-y="27" inkscape:window-maximized="1" inkscape:current-layer="svg6422">
      <inkscape:grid type="xygrid" id="grid6432" />
   </sodipodi:namedview>
   <path id="path6530" inkscape:connector-curvature="0" d="M 0.94925,2 C -0.05175,2 1e-4,2.71087 1e-4,3 L 0,14 c 0,0.9765 0.4641,1 1,1 l 14,0 c 0.53589,0 1,-0.074 1,-1 l 10e-5,-6 c 0,-1 -0.41426,-1 -1,-1 l -11.00015,0 -1e-4,5 c 0,0.277 0.0508,1 -0.44915,1 -0.5,0 -0.5,-0.723 -0.5,-1 L 3,7 C 3,6 3.44334,6 4,6 l 10.0001,0 0,-1 c 0,-0.5984 0,-1 -1,-1 L 6,4 6,3 C 6,2.71085 5.9756,2 5,2 z" sodipodi:nodetypes="ccccccccccscccccccccc" style="fill:#bebebe;fill-opacity:1" />
</svg>
