<?xml version="1.0" encoding="UTF-8" standalone="no"?>
<svg xmlns="http://www.w3.org/2000/svg" height="16.001" width="16" version="1.1">
 <path d="m2.1875 1c-1.2 0-2.1875 1.0839-2.1875 2.375v9.2812c0 1.291 0.9859 2.344 2.1875 2.344h11.625c1.202 0 2.188-1.053 2.188-2.344v-9.281c-0.01-1.3019-0.988-2.375-2.188-2.375-3.8868 0.0113-6.8789 5e-7 -11.625 0zm0 2.1562c3.8738 0.012167 7.7479 0 11.625 0 0.124 0 0.188 0.078 0.188 0.2188v9.2812c0 0.14083-0.0637 0.1875-0.1875 0.1875h-11.625c-0.1395-0.011-0.187-0.079-0.187-0.219v-9.2812c0-0.1292 0.0575-0.1876 0.1875-0.1876zm4.3125 0.8438c-0.0876 0-0.1739 0.0218-0.25 0.0938l-3.5 3.2187c-0.1555 0.1375-0.25 0.4063-0.25 0.6875 0 0.28122 0.094476 0.55 0.25 0.6875l3.5 3.2188c0.0762 0.069 0.1624 0.095 0.25 0.094h0.5v-8c-0.1669-0.0013-0.3331 0.0004-0.5 0z" fill="#bebebe"/>
</svg>
